<?xml version="1.0" standalone="no"?><svg xmlns="http://www.w3.org/2000/svg" viewBox="0 0 1440 320"><path fill="#f3f4f5" fill-opacity="1" d="M0,32L30,32C60,32,120,32,180,69.3C240,107,300,181,360,192C420,203,480,149,540,154.7C600,160,660,224,720,229.3C780,235,840,181,900,144C960,107,1020,85,1080,85.3C1140,85,1200,107,1260,144C1320,181,1380,235,1410,261.3L1440,288L1440,0L1410,0C1380,0,1320,0,1260,0C1200,0,1140,0,1080,0C1020,0,960,0,900,0C840,0,780,0,720,0C660,0,600,0,540,0C480,0,420,0,360,0C300,0,240,0,180,0C120,0,60,0,30,0L0,0Z"></path></svg>